HIERARCHY
ROOT pelvis
{
  OFFSET 0 100 0
  CHANNELS 6 Xposition Yposition Zposition Zrotation Xrotation Yrotation
  JOINT pelvis_right_femur
  {
    OFFSET -10.78128 -3.44521 -0.5502486
    CHANNELS 3 Zrotation Xrotation Yrotation
    JOINT right_femur_tibia
    {
      OFFSET -0.8047443 -44.0398 -0.1307829
      CHANNELS 3 Zrotation Xrotation Yrotation
      JOINT right_tibia_foot
      {
        OFFSET 3.006224 -47.83518 -5
        CHANNELS 3 Zrotation Xrotation Yrotation
        End Site
        {
          OFFSET 0 -5 15
        }
      }
    }
  }
  JOINT pelvis_left_femur
  {
    OFFSET 10.78128 -3.44521 -0.5502486
    CHANNELS 3 Zrotation Xrotation Yrotation
    JOINT left_femur_tibia
    {
      OFFSET 0.8047443 -44.0398 -0.1307829
      CHANNELS 3 Zrotation Xrotation Yrotation
      JOINT left_tibia_foot
      {
        OFFSET -4.370144 -48.10324 -4.275266
        CHANNELS 3 Zrotation Xrotation Yrotation
        End Site
        {
          OFFSET 0 -5 15
        }
      }
    }
  }
  JOINT pelvis_spine1
  {
    OFFSET 0 6.468898 -3.129235
    CHANNELS 3 Zrotation Xrotation Yrotation
    JOINT spine1
    {
      OFFSET 0 23.15396 4.99043
      CHANNELS 3 Zrotation Xrotation Yrotation
      JOINT spine2
      {
        OFFSET 0 20.79997 -5.064912
        CHANNELS 3 Zrotation Xrotation Yrotation
        JOINT neck
        {
          OFFSET 0 14.38658 9.616178
          CHANNELS 3 Zrotation Xrotation Yrotation
          End Site
          {
            OFFSET 0 20 0
          }
        }
      }
      JOINT right_manubrium
      {
        OFFSET -5.722621 16.35077 3.967754
        CHANNELS 3 Zrotation Xrotation Yrotation
        JOINT right_clavicle
        {
          OFFSET -13.16364 1.694482 -4.693211
          CHANNELS 3 Zrotation Xrotation Yrotation
          JOINT right_humerus
          {
            OFFSET -28.5034 -0.3100689 -2.792744
            CHANNELS 3 Zrotation Xrotation Yrotation
            JOINT right_radius
            {
              OFFSET -25.15693 0.02248979 -1.271978
              CHANNELS 3 Zrotation Xrotation Yrotation
              End Site
              {
                OFFSET -15 0 0
              }
            }
          }
        }
      }
      JOINT left_manubrium
      {
        OFFSET 5.722621 16.35077 3.967754
        CHANNELS 3 Zrotation Xrotation Yrotation
        JOINT left_clavicle
        {
          OFFSET 13.16364 1.694482 -4.693211
          CHANNELS 3 Zrotation Xrotation Yrotation
          JOINT left_humerus
          {
            OFFSET 29.39168 -1.063119 -2.237045
            CHANNELS 3 Zrotation Xrotation Yrotation
            JOINT left_radius
            {
              OFFSET 24.59957 -0.9528479 0.9047498
              CHANNELS 3 Zrotation Xrotation Yrotation
              End Site
              {
                OFFSET 15 -0 -0
              }
            }
          }
        }
      }
    }
  }
}
MOTION
Frames: 11
Frame Time: 0.0416666666667
0 103.5113 0 2.878096 0.1083176 0.2665604 3.029138 -15.89058 9.585483 -0 35.2346 -0 -3.787983 -19.54021 -2.281906 -9.028093 10.05759 -23.02809 -0 3.180811 -0 21.081 -10.14226 28.52311 -2.402977 -2.309828 4.632902 2.779267 10.06344 -7.483717 1.807948 21.25733 6.542622 2.825242 -25.56854 10.17164 5.337109 -18.95225 10.96246 86.96934 36.81827 -19.18144 -0 0 13.87332 -6.725354 8.781558 3.750345 6.147512 -20.42167 -1.993556 -91.24013 22.07015 19.42805 0 0 -18.14596 13.641 13.81544 -1.860802
0.3859873 103.4205 1.494085 2.434431 1.140733 0.4732137 4.208357 -19.07351 10.40744 -0 35.27571 -0 -3.774611 -18.39235 -1.955582 -9.153611 10.31403 -23.02313 -0 4.138892 -0 22.09023 -10.50963 29.53965 -2.645805 -2.353224 4.547883 3.0364 9.913784 -7.638539 1.840717 21.1971 6.653921 2.670096 -25.90673 10.5337 5.174055 -19.13702 10.88668 87.12417 37.40369 -19.21846 -0 0 13.71604 -6.113864 8.728061 3.5334 6.112941 -20.33931 -2.013823 -90.63219 21.90308 18.83986 0 0 -19.70122 14.25149 13.35555 -2.549552
0.7088896 103.231 3.35794 1.253838 1.703034 0.6038185 5.162871 -23.14134 9.222755 -0 32.0722 -0 -4.389524 -15.12608 -1.972516 -8.166843 11.24141 -22.16566 -0 4.912044 -0 16.19857 -14.98351 27.8712 -2.610814 -2.27067 4.352484 3.205432 9.821684 -7.660839 1.773903 21.23379 6.710055 2.596159 -26.00381 10.56293 5.309457 -18.85156 11.03771 87.09038 37.47798 -19.38342 -0 0 13.13142 -6.075646 8.79184 3.920838 5.923315 -20.14159 -1.981071 -90.4471 22.20229 18.66981 0 0 -19.89768 13.9324 13.07773 -2.124489
0.9904215 102.9713 5.477635 0.5059542 2.367756 0.6978949 5.991404 -26.48772 8.858038 -0 29.75308 -0 -4.70178 -12.92517 -1.948973 -7.625304 11.77982 -21.57029 -0 5.588277 -0 13.21556 -17.5568 26.79938 -2.539311 -2.148406 4.228184 3.202411 9.819505 -7.615395 1.696031 21.27887 6.767938 2.633071 -25.90971 10.46802 5.373964 -18.61198 11.14927 87.11953 37.45308 -19.45935 -0 0 12.66989 -6.429507 8.881723 4.296974 5.867885 -20.10186 -2.00666 -90.22248 22.1412 18.43807 0 0 -19.88398 13.83293 12.84398 -2.016744
1.251732 102.5418 8.05105 -0.02380786 2.969616 0.839436 6.609156 -29.96941 7.782797 -0 25.69517 -0 -5.302358 -9.913309 -1.584329 -7.239588 12.22782 -20.2608 -0 6.412577 -0 11.70424 -19.31682 25.38031 -2.47086 -2.059765 4.122979 3.22366 9.81457 -7.591919 1.633945 21.31161 6.796015 2.647739 -25.85003 10.37839 5.455156 -18.3985 11.25306 87.11479 37.37601 -19.55191 -0 0 12.30177 -6.676392 8.949513 4.612047 5.789351 -20.04412 -2.019064 -90.11197 22.20373 18.32475 0 0 -19.78012 13.60064 12.68346 -1.746524
1.498995 101.9458 11.1641 -0.4002959 3.485983 1.08206 7.02692 -32.86806 6.628094 -0 21.29211 -0 -5.915445 -7.030064 -1.160323 -6.942832 12.73429 -18.88446 -0 7.552023 -0 10.6525 -20.52197 23.93751 -2.410805 -1.974132 4.031379 3.233923 9.816145 -7.57034 1.574629 21.33875 6.825333 2.66826 -25.78244 10.28882 5.516103 -18.2117 11.34342 87.12418 37.30499 -19.63469 -0 0 11.96685 -6.935311 9.013012 4.900881 5.728822 -20.00777 -2.040014 -89.98091 22.21882 18.19089 0 0 -19.72207 13.41386 12.51573 -1.534801
1.734036 101.2208 14.94382 -0.6866179 3.696037 1.480741 7.17916 -34.77167 5.139505 -0 16.98577 -0 -6.802171 -4.080711 -0.6438188 -6.629504 13.44313 -17.4057 -0 9.459139 -0 9.484583 -21.13946 22.22056 -2.361878 -1.905313 3.951824 3.25581 9.81534 -7.562248 1.523459 21.3566 6.847051 2.678632 -25.73546 10.21227 5.570557 -18.05348 11.42305 87.13138 37.23564 -19.72143 -0 0 11.6813 -7.136604 9.064259 5.145876 5.666532 -19.97209 -2.059496 -89.8722 22.25775 18.08372 0 0 -19.69118 13.21477 12.3629 -1.306072
1.956559 100.4915 19.46373 -0.9956599 3.501726 2.059922 7.160879 -35.23028 3.472384 -0 13.85779 -0 -7.953765 -1.431153 -0.1451622 -6.173379 14.35681 -15.97131 -0 12.54084 -0 7.429925 -21.0902 19.9765 -2.319297 -1.843866 3.881118 3.278153 9.815928 -7.559519 1.476278 21.36932 6.866335 2.687353 -25.6935 10.14063 5.616652 -17.9141 11.49456 87.14231 37.16844 -19.80693 -0 0 11.425 -7.320284 9.109988 5.365808 5.60953 -19.94357 -2.080959 -89.76696 22.29086 17.98159 0 0 -19.68178 13.0259 12.21481 -1.089767
2.165959 99.94637 24.72567 -1.404968 2.921552 2.763768 7.127542 -34.0137 1.835955 -0 12.58925 -0 -9.095022 0.4649176 0.160909 -5.500191 15.244 -14.54013 -0 17.24928 -0 4.046613 -20.09691 16.93788 -2.280938 -1.789865 3.819639 3.299537 9.818367 -7.560416 1.43354 21.37834 6.880747 2.694693 -25.65455 10.07097 5.657674 -17.79089 11.55886 87.15175 37.09771 -19.8883 -0 0 11.20143 -7.488257 9.150376 5.562421 5.556129 -19.91983 -2.102802 -89.67572 22.32583 17.89436 0 0 -19.67093 12.83652 12.08004 -0.8739355
2.361067 99.79274 30.63027 -1.919293 2.207834 3.41241 7.30097 -31.33639 0.758963 -0 13.03603 -0 -9.600897 1.173694 -0.03780184 -4.65194 15.5246 -12.9929 -0 23.98743 -0 -0.3488196 -17.79987 13.30543 -2.244131 -1.7402 3.767535 3.314194 9.824466 -7.560542 1.3946 21.38623 6.889835 2.703876 -25.61082 9.998172 5.694475 -17.67985 11.61656 87.15723 37.01922 -19.95923 -0 0 11.00899 -7.656557 9.187362 5.742408 5.508292 -19.90177 -2.125005 -89.59955 22.35668 17.82125 0 0 -19.64001 12.64766 11.96219 -0.6616965
2.54085 100.1887 36.98681 -2.422912 1.647747 3.734024 7.817608 -27.66347 0.962236 -0 14.19297 -0 -9.054389 0.7124094 -0.9689432 -3.796348 14.36227 -11.22779 -0 33.00505 -0 -4.222018 -13.9714 10.15275 -2.207218 -1.693571 3.72598 3.317941 9.835308 -7.556571 1.359829 21.39507 6.891845 2.716582 -25.55707 9.918528 5.728194 -17.57924 11.6675 87.15425 36.92892 -20.01266 -0 0 10.85146 -7.833804 9.221405 5.908571 5.466779 -19.88888 -2.146605 -89.54399 22.38296 17.76642 0 0 -19.56949 12.45641 11.86805 -0.4512012
